<mxfile host="app.diagrams.net" modified="2024-05-23T02:33:26.405Z" agent="Mozilla/5.0 (Windows NT 10.0; WOW64) AppleWebKit/537.36 (KHTML, like Gecko) Chrome/86.0.4240.198 Safari/537.36" etag="cDoPf0N6QRMuW8pDhsCp" version="24.4.6" type="github">
  <diagram name="第 1 页" id="aLqEeqeL4Rd8iBHf02Ho">
    <mxGraphModel dx="1687" dy="889" grid="0" gridSize="10" guides="1" tooltips="1" connect="1" arrows="1" fold="1" page="1" pageScale="1" pageWidth="827" pageHeight="1169" math="0" shadow="0">
      <root>
        <mxCell id="0" />
        <mxCell id="1" parent="0" />
        <mxCell id="JOVW4C9xX3hWux2VZVAg-11" style="edgeStyle=orthogonalEdgeStyle;rounded=0;orthogonalLoop=1;jettySize=auto;html=1;entryX=0.5;entryY=0;entryDx=0;entryDy=0;" edge="1" parent="1" source="JOVW4C9xX3hWux2VZVAg-1" target="JOVW4C9xX3hWux2VZVAg-7">
          <mxGeometry relative="1" as="geometry" />
        </mxCell>
        <mxCell id="JOVW4C9xX3hWux2VZVAg-1" value="Resnet -50" style="rounded=0;whiteSpace=wrap;html=1;fillColor=#dae8fc;strokeColor=#6c8ebf;" vertex="1" parent="1">
          <mxGeometry x="105" y="41.5" width="135" height="62" as="geometry" />
        </mxCell>
        <mxCell id="JOVW4C9xX3hWux2VZVAg-2" value="Resnet -50" style="rounded=0;whiteSpace=wrap;html=1;fillColor=#dae8fc;strokeColor=#6c8ebf;" vertex="1" parent="1">
          <mxGeometry x="105" y="385" width="135" height="62" as="geometry" />
        </mxCell>
        <mxCell id="JOVW4C9xX3hWux2VZVAg-4" value="" style="rounded=0;whiteSpace=wrap;html=1;fillColor=#d5e8d4;strokeColor=#82b366;" vertex="1" parent="1">
          <mxGeometry x="380.25" y="442" width="81" height="33" as="geometry" />
        </mxCell>
        <mxCell id="JOVW4C9xX3hWux2VZVAg-5" value="" style="rounded=0;whiteSpace=wrap;html=1;fillColor=#ffe6cc;strokeColor=#d79b00;" vertex="1" parent="1">
          <mxGeometry x="370.75" y="486" width="100" height="33" as="geometry" />
        </mxCell>
        <mxCell id="JOVW4C9xX3hWux2VZVAg-14" style="edgeStyle=orthogonalEdgeStyle;rounded=0;orthogonalLoop=1;jettySize=auto;html=1;exitX=1;exitY=0.5;exitDx=0;exitDy=0;" edge="1" parent="1" source="JOVW4C9xX3hWux2VZVAg-6">
          <mxGeometry relative="1" as="geometry">
            <mxPoint x="571" y="414" as="targetPoint" />
          </mxGeometry>
        </mxCell>
        <mxCell id="JOVW4C9xX3hWux2VZVAg-6" value="" style="rounded=0;whiteSpace=wrap;html=1;fillColor=#f8cecc;strokeColor=#b85450;" vertex="1" parent="1">
          <mxGeometry x="357" y="530" width="127.5" height="32" as="geometry" />
        </mxCell>
        <mxCell id="JOVW4C9xX3hWux2VZVAg-7" value="" style="rounded=0;whiteSpace=wrap;html=1;fillColor=#d5e8d4;strokeColor=#82b366;" vertex="1" parent="1">
          <mxGeometry x="382.25" y="92" width="81" height="33" as="geometry" />
        </mxCell>
        <mxCell id="JOVW4C9xX3hWux2VZVAg-8" value="" style="rounded=0;whiteSpace=wrap;html=1;fillColor=#ffe6cc;strokeColor=#d79b00;" vertex="1" parent="1">
          <mxGeometry x="372.75" y="136" width="100" height="33" as="geometry" />
        </mxCell>
        <mxCell id="JOVW4C9xX3hWux2VZVAg-13" style="edgeStyle=orthogonalEdgeStyle;rounded=0;orthogonalLoop=1;jettySize=auto;html=1;exitX=1;exitY=0.5;exitDx=0;exitDy=0;" edge="1" parent="1" source="JOVW4C9xX3hWux2VZVAg-9">
          <mxGeometry relative="1" as="geometry">
            <mxPoint x="564.0588235294117" y="309" as="targetPoint" />
          </mxGeometry>
        </mxCell>
        <mxCell id="JOVW4C9xX3hWux2VZVAg-9" value="" style="rounded=0;whiteSpace=wrap;html=1;fillColor=#f8cecc;strokeColor=#b85450;" vertex="1" parent="1">
          <mxGeometry x="359" y="180" width="127.5" height="32" as="geometry" />
        </mxCell>
        <mxCell id="JOVW4C9xX3hWux2VZVAg-12" style="edgeStyle=orthogonalEdgeStyle;rounded=0;orthogonalLoop=1;jettySize=auto;html=1;exitX=1;exitY=0.5;exitDx=0;exitDy=0;entryX=0.602;entryY=0.03;entryDx=0;entryDy=0;entryPerimeter=0;" edge="1" parent="1" source="JOVW4C9xX3hWux2VZVAg-2" target="JOVW4C9xX3hWux2VZVAg-4">
          <mxGeometry relative="1" as="geometry" />
        </mxCell>
        <mxCell id="JOVW4C9xX3hWux2VZVAg-19" style="edgeStyle=orthogonalEdgeStyle;rounded=0;orthogonalLoop=1;jettySize=auto;html=1;exitX=1;exitY=0.5;exitDx=0;exitDy=0;entryX=0;entryY=0.5;entryDx=0;entryDy=0;" edge="1" parent="1" source="JOVW4C9xX3hWux2VZVAg-15" target="JOVW4C9xX3hWux2VZVAg-16">
          <mxGeometry relative="1" as="geometry" />
        </mxCell>
        <mxCell id="JOVW4C9xX3hWux2VZVAg-20" style="edgeStyle=orthogonalEdgeStyle;rounded=0;orthogonalLoop=1;jettySize=auto;html=1;exitX=1;exitY=0.5;exitDx=0;exitDy=0;" edge="1" parent="1" source="JOVW4C9xX3hWux2VZVAg-15" target="JOVW4C9xX3hWux2VZVAg-18">
          <mxGeometry relative="1" as="geometry" />
        </mxCell>
        <mxCell id="JOVW4C9xX3hWux2VZVAg-15" value="Multi-modal transformer" style="rounded=0;whiteSpace=wrap;html=1;fillColor=#e1d5e7;strokeColor=#9673a6;" vertex="1" parent="1">
          <mxGeometry x="500" y="325" width="160" height="80" as="geometry" />
        </mxCell>
        <mxCell id="JOVW4C9xX3hWux2VZVAg-24" style="edgeStyle=orthogonalEdgeStyle;rounded=0;orthogonalLoop=1;jettySize=auto;html=1;exitX=1;exitY=0.5;exitDx=0;exitDy=0;" edge="1" parent="1" source="JOVW4C9xX3hWux2VZVAg-16">
          <mxGeometry relative="1" as="geometry">
            <mxPoint x="888" y="295" as="targetPoint" />
          </mxGeometry>
        </mxCell>
        <mxCell id="JOVW4C9xX3hWux2VZVAg-16" value="feature" style="rounded=0;whiteSpace=wrap;html=1;fillColor=#ffcccc;strokeColor=#36393d;" vertex="1" parent="1">
          <mxGeometry x="707" y="265" width="120" height="60" as="geometry" />
        </mxCell>
        <mxCell id="JOVW4C9xX3hWux2VZVAg-17" value="" style="endArrow=classic;html=1;rounded=0;entryX=0.5;entryY=1;entryDx=0;entryDy=0;" edge="1" parent="1" target="JOVW4C9xX3hWux2VZVAg-22">
          <mxGeometry width="50" height="50" relative="1" as="geometry">
            <mxPoint x="307" y="416" as="sourcePoint" />
            <mxPoint x="903" y="477" as="targetPoint" />
            <Array as="points">
              <mxPoint x="304" y="619" />
              <mxPoint x="782" y="621" />
              <mxPoint x="947" y="619" />
            </Array>
          </mxGeometry>
        </mxCell>
        <mxCell id="JOVW4C9xX3hWux2VZVAg-21" style="edgeStyle=orthogonalEdgeStyle;rounded=0;orthogonalLoop=1;jettySize=auto;html=1;exitX=1;exitY=0.5;exitDx=0;exitDy=0;" edge="1" parent="1" source="JOVW4C9xX3hWux2VZVAg-18">
          <mxGeometry relative="1" as="geometry">
            <mxPoint x="885" y="435" as="targetPoint" />
          </mxGeometry>
        </mxCell>
        <mxCell id="JOVW4C9xX3hWux2VZVAg-18" value="feature" style="rounded=0;whiteSpace=wrap;html=1;fillColor=#ffcccc;strokeColor=#36393d;" vertex="1" parent="1">
          <mxGeometry x="707" y="405" width="120" height="60" as="geometry" />
        </mxCell>
        <mxCell id="JOVW4C9xX3hWux2VZVAg-22" value="Cross-attention" style="whiteSpace=wrap;html=1;fillColor=#b1ddf0;strokeColor=#10739e;" vertex="1" parent="1">
          <mxGeometry x="887" y="405" width="120" height="60" as="geometry" />
        </mxCell>
        <mxCell id="JOVW4C9xX3hWux2VZVAg-26" value="Cross-attention" style="whiteSpace=wrap;html=1;fillColor=#b1ddf0;strokeColor=#10739e;" vertex="1" parent="1">
          <mxGeometry x="887" y="267" width="120" height="60" as="geometry" />
        </mxCell>
        <mxCell id="JOVW4C9xX3hWux2VZVAg-27" value="" style="endArrow=classic;html=1;rounded=0;entryX=0.5;entryY=0;entryDx=0;entryDy=0;" edge="1" parent="1" target="JOVW4C9xX3hWux2VZVAg-26">
          <mxGeometry width="50" height="50" relative="1" as="geometry">
            <mxPoint x="320" y="72" as="sourcePoint" />
            <mxPoint x="753" y="364" as="targetPoint" />
            <Array as="points">
              <mxPoint x="320" y="20" />
              <mxPoint x="637" y="19" />
              <mxPoint x="796" y="20" />
              <mxPoint x="950" y="20" />
            </Array>
          </mxGeometry>
        </mxCell>
        <mxCell id="JOVW4C9xX3hWux2VZVAg-28" value="&lt;font style=&quot;font-size: 18px;&quot;&gt;Local-Branch&lt;/font&gt;" style="text;html=1;align=center;verticalAlign=middle;whiteSpace=wrap;rounded=0;" vertex="1" parent="1">
          <mxGeometry x="360.5" y="223" width="126" height="37" as="geometry" />
        </mxCell>
        <mxCell id="JOVW4C9xX3hWux2VZVAg-29" value="&lt;font style=&quot;font-size: 18px;&quot;&gt;Global Branch&lt;/font&gt;" style="text;html=1;align=center;verticalAlign=middle;whiteSpace=wrap;rounded=0;" vertex="1" parent="1">
          <mxGeometry x="320.5" y="16" width="166" height="45" as="geometry" />
        </mxCell>
        <mxCell id="JOVW4C9xX3hWux2VZVAg-31" value="&lt;font style=&quot;font-size: 18px;&quot;&gt;Modality Fusion&lt;/font&gt;" style="text;html=1;align=center;verticalAlign=middle;resizable=0;points=[];autosize=1;strokeColor=none;fillColor=none;" vertex="1" parent="1">
          <mxGeometry x="348.75" y="346" width="144" height="33" as="geometry" />
        </mxCell>
        <mxCell id="JOVW4C9xX3hWux2VZVAg-32" value="" style="endArrow=classic;html=1;rounded=0;exitX=1;exitY=0.5;exitDx=0;exitDy=0;" edge="1" parent="1" source="JOVW4C9xX3hWux2VZVAg-26">
          <mxGeometry width="50" height="50" relative="1" as="geometry">
            <mxPoint x="814" y="394" as="sourcePoint" />
            <mxPoint x="1188" y="297" as="targetPoint" />
          </mxGeometry>
        </mxCell>
        <mxCell id="JOVW4C9xX3hWux2VZVAg-33" value="" style="endArrow=classic;html=1;rounded=0;exitX=1;exitY=0.5;exitDx=0;exitDy=0;" edge="1" parent="1">
          <mxGeometry width="50" height="50" relative="1" as="geometry">
            <mxPoint x="1007" y="434.40999999999997" as="sourcePoint" />
            <mxPoint x="1188" y="434.40999999999997" as="targetPoint" />
          </mxGeometry>
        </mxCell>
        <mxCell id="JOVW4C9xX3hWux2VZVAg-34" value="&lt;font style=&quot;font-size: 12px;&quot;&gt;Classification Modal&lt;/font&gt;" style="whiteSpace=wrap;html=1;fillColor=#ffe6cc;strokeColor=#d79b00;" vertex="1" parent="1">
          <mxGeometry x="1209" y="328.25" width="164" height="68.5" as="geometry" />
        </mxCell>
        <mxCell id="JOVW4C9xX3hWux2VZVAg-35" value="" style="endArrow=classic;html=1;rounded=0;" edge="1" parent="1">
          <mxGeometry width="50" height="50" relative="1" as="geometry">
            <mxPoint x="1399" y="360" as="sourcePoint" />
            <mxPoint x="1449" y="310" as="targetPoint" />
          </mxGeometry>
        </mxCell>
        <mxCell id="JOVW4C9xX3hWux2VZVAg-36" value="" style="endArrow=classic;html=1;rounded=0;" edge="1" parent="1">
          <mxGeometry width="50" height="50" relative="1" as="geometry">
            <mxPoint x="1398" y="362" as="sourcePoint" />
            <mxPoint x="1447" y="411" as="targetPoint" />
          </mxGeometry>
        </mxCell>
        <mxCell id="JOVW4C9xX3hWux2VZVAg-37" value="" style="ellipse;whiteSpace=wrap;html=1;aspect=fixed;fillColor=#f8cecc;strokeColor=#b85450;" vertex="1" parent="1">
          <mxGeometry x="1482" y="281" width="38" height="38" as="geometry" />
        </mxCell>
        <mxCell id="JOVW4C9xX3hWux2VZVAg-38" value="" style="ellipse;whiteSpace=wrap;html=1;aspect=fixed;fillColor=#d5e8d4;strokeColor=#82b366;" vertex="1" parent="1">
          <mxGeometry x="1485" y="396.75" width="38" height="38" as="geometry" />
        </mxCell>
        <mxCell id="JOVW4C9xX3hWux2VZVAg-40" value="&lt;font style=&quot;font-size: 18px;&quot;&gt;Local-Global Fusion&lt;/font&gt;" style="text;html=1;align=center;verticalAlign=middle;resizable=0;points=[];autosize=1;strokeColor=none;fillColor=none;" vertex="1" parent="1">
          <mxGeometry x="974" y="223" width="178" height="33" as="geometry" />
        </mxCell>
      </root>
    </mxGraphModel>
  </diagram>
</mxfile>
